<svg width="150" height="72" viewBox="0 0 150 72" fill="none" xmlns="http://www.w3.org/2000/svg">
<path d="M47.0522 12.0337L46.9311 13.8928L46.1442 16.2917L45.9626 17.3713L45.781 19.3504L45.5389 19.9501L45.2363 21.7493V22.8288L45.4179 25.4676L46.0837 28.5263L47.1732 30.7453L48.4444 32.4845L50.563 34.8234L53.4684 36.5027L58.2503 38.9616L61.1558 39.7412L64.8481 40.0411H69.9932L73.6251 39.2015L75.8647 37.4622L76.9543 34.8834C77.0511 37.2343 81.151 36.9825 83.1889 36.5626L82.402 34.8834V34.4036L84.0363 34.8834L86.2759 35.4232L88.7577 35.783L90.1499 35.4232L91.421 34.7635L90.9973 33.6839L90.0894 32.6644L89.0603 31.9447L88.7577 31.4649L89.6051 31.225L90.4526 30.5653L90.7552 30.0256L90.5131 29.2459L89.5446 28.5862L88.1524 28.0465L87.7892 27.4467L88.9998 26.967L89.8472 26.4272L90.3315 25.1078L90.0894 23.9083L89.363 22.7688L88.5156 22.409L87.5471 22.2291H85.9733L86.6997 20.9097L87.7287 18.8106L88.0919 16.5916L87.8497 15.1523L87.426 12.9932C87.3655 11.194 85.6101 8.91506 85.3075 8.43528C85.0653 8.05145 83.5924 7.19583 82.8862 6.816H82.0388L81.1914 6.93595L80.1018 7.35576L79.3755 8.25536L79.1939 9.2749L79.5571 10.4744L80.465 11.374L81.5546 12.5734L82.0993 14.4326L82.2809 17.0714V18.8106L82.0993 19.1705L81.3124 19.6502L80.2834 20.5498L79.5571 21.8093L78.8912 22.5289L78.6491 20.7298V17.6112L78.2254 15.8719L76.7727 13.2331L75.0778 10.2345L74.6541 8.13541L73.8672 6.816L71.0828 3.21762L69.8116 2.31802L68.3589 1.11856L67.2088 0.458858L64.5455 0.218966L61.8216 0.578804L59.4004 1.11856L59.0372 1.41843C58.6135 1.63833 57.7419 2.07813 57.645 2.07813C57.5482 2.07813 56.1116 2.43797 55.4054 2.61789L53.5289 4.05724L51.713 6.39619L49.3523 8.85509L47.9601 10.5943L47.0522 12.0337Z" fill="white"/>
<path d="M82.5314 34.59C82.8529 35.3118 83.2053 35.9653 83.2526 36.7326C83.0896 36.7001 83.0852 36.5851 83.0473 36.501C82.663 35.6507 82.1251 34.9013 81.5047 34.205C81.448 34.1416 81.3275 34.0879 81.3836 33.9876C81.437 33.8921 81.5543 33.949 81.6374 33.9631C82.3542 34.0868 83.0395 34.3091 83.7079 34.5933C84.8045 35.0591 85.9655 35.2744 87.1442 35.4105C87.4447 35.4452 87.7453 35.481 88.0431 35.5303C89.1623 35.7153 90.1307 35.2852 91.0913 34.8172C91.2245 34.7522 91.2135 34.6567 91.1799 34.5445C91.0412 34.0792 90.826 33.6492 90.51 33.2793C89.6077 32.223 88.4714 31.601 87.0605 31.4735C86.4681 31.4198 85.8719 31.3797 85.2873 31.2588C85.2003 31.2409 85.0588 31.2577 85.0539 31.1617C85.0473 31.0375 85.192 31.0809 85.2724 31.0695C85.9848 30.9697 86.701 31.031 87.4156 31.024C88.1213 31.0169 88.8276 31.0652 89.5312 30.9632C89.9782 30.8982 90.2925 30.678 90.4709 30.2664C90.6256 29.9101 90.5628 29.601 90.287 29.3255C89.7266 28.7659 89.0286 28.4725 88.2744 28.2681C87.4238 28.0376 86.5568 28.0078 85.6842 28.0018C85.5433 28.0007 85.3484 28.0582 85.3379 27.8093C85.3286 27.5902 85.3968 27.4715 85.6517 27.4303C86.5469 27.2871 87.4491 27.203 88.3415 27.0317C89.8681 26.7383 90.423 25.4634 90.0228 24.1158C89.8538 23.5464 89.4646 23.1278 89.0126 22.7601C88.6305 22.4499 88.1687 22.3773 87.6958 22.3653C87.2653 22.3545 86.8342 22.3458 86.4043 22.4006C86.1962 22.4271 85.9831 22.4174 85.7723 22.4195C85.5807 22.4217 85.5416 22.3388 85.649 22.1858C85.8895 21.8447 86.1356 21.5069 86.3718 21.1625C86.9564 20.3106 87.4436 19.4158 87.6347 18.3888C87.8527 17.2142 87.862 16.0401 87.693 14.8574C87.4783 13.3531 87.0665 11.9003 86.4687 10.5088C85.8422 9.05117 84.8375 7.90261 83.3467 7.2215C82.1549 6.67705 81.0605 6.88258 80.0464 7.64665C79.7497 7.87062 79.6066 8.1987 79.5333 8.55118C79.4783 8.81636 79.4552 9.0875 79.3996 9.35268C79.3638 9.52458 79.4365 9.59562 79.5867 9.65419C80.0547 9.83694 80.5369 9.9839 80.9564 10.2773C81.2251 10.4654 81.4166 10.6927 81.4866 11.0072C81.8813 12.787 82.3701 14.5505 82.4032 16.3926C82.4142 17.0146 82.4962 17.6344 82.5094 18.2586C82.5215 18.8204 82.3745 19.27 81.8014 19.5048C80.6063 19.9939 80.0409 21.0031 79.5989 22.1126C79.099 23.3685 78.8419 24.6565 79.0357 26.0111C79.0913 26.3994 79.1959 26.7784 79.3456 27.1325C79.8774 28.3906 79.7277 29.6075 79.1777 30.8092C78.3338 32.6541 77.5471 34.5212 76.8072 36.4094C76.4092 37.4251 75.6253 38.1409 74.7478 38.7548C73.535 39.6034 72.156 40.0129 70.6916 40.1522C68.1758 40.3919 65.6517 40.309 63.1303 40.3106C62.625 40.3106 62.1306 40.1897 61.6362 40.0958C60.9707 39.9695 60.2941 39.9055 59.6351 39.739C59.0356 39.5877 58.467 39.3719 57.9385 39.0509C57.4694 38.7656 56.9586 38.5753 56.4466 38.373C55.7882 38.1132 55.1358 37.8112 54.5369 37.4224C53.4568 36.7207 52.3678 36.0314 51.2162 35.4501C50.1746 34.9246 49.4656 34.0721 48.7835 33.1817C48.6035 32.9469 48.4328 32.7029 48.1581 32.4523C47.8834 32.2018 47.8218 31.939 47.6505 31.7462C47.3536 31.3607 47.4892 31.3846 46.9233 30.5007C46.1658 29.3174 45.7535 28.0197 45.5134 26.6548C45.285 25.3538 45.0796 24.0513 45.1116 22.7259C45.1385 21.6126 45.247 20.5113 45.552 19.4316C45.7474 18.7407 45.7617 18.0211 45.7975 17.3091C45.8404 16.4631 46.1388 15.6871 46.4388 14.9095C46.5462 14.6313 46.6574 14.3547 46.7653 14.0765C46.8264 13.9187 46.8115 13.7745 46.6761 13.6568C46.5473 13.5451 46.446 13.6232 46.3332 13.6964C46.1526 13.8135 46.152 13.6628 46.1548 13.557C46.1658 13.1611 46.288 12.7946 46.4763 12.447C46.8314 11.7908 47.2674 11.1872 47.7259 10.5999C48.0618 10.1699 48.3899 9.73553 48.6756 9.27134C49.1512 8.49912 49.7276 7.81422 50.4675 7.27465C51.1044 6.80937 51.574 6.19767 52.0287 5.57404C52.5853 4.81051 53.1567 4.06216 53.8184 3.37996C54.5071 2.67011 55.3478 2.24984 56.2853 1.97003C57.2063 1.69509 58.1212 1.40117 59.0296 1.0861C59.7893 0.822554 60.598 0.718435 61.3836 0.538939C62.3684 0.314434 63.3632 0.155545 64.3701 0.0845055C65.1656 0.0281079 65.9677 0.00370519 66.7582 0.1306C67.4287 0.238514 67.9765 0.620824 68.505 1.01398C69.1854 1.52047 69.846 2.05191 70.5259 2.5584C71.372 3.18908 71.9825 4.02799 72.6376 4.82949C72.9652 5.23024 73.2944 5.63044 73.6456 6.01113C74.2864 6.70471 74.6597 7.52789 74.9091 8.41832C75.1138 9.14878 75.2443 9.89984 75.5482 10.6026C75.8554 11.312 76.2688 11.96 76.6872 12.6091C77.5598 13.9632 78.3118 15.3775 78.7109 16.9474C78.7797 17.2185 78.7984 17.4994 78.8061 17.7803C78.8364 18.9365 78.7615 20.0937 78.8606 21.2488C78.8755 21.4196 78.8915 21.5904 78.9146 21.7601C78.925 21.8361 78.8914 21.9451 78.9872 21.976C79.077 22.0047 79.1304 21.9141 79.1843 21.8545C79.4717 21.5345 79.693 21.1701 79.9099 20.8035C79.9881 20.6712 80.0585 20.5324 80.1147 20.3898C80.2699 19.9977 80.5578 19.7352 80.925 19.54C81.2476 19.3687 81.5923 19.2391 81.8956 19.0308C82.1163 18.879 82.2127 18.6924 82.2198 18.418C82.2408 17.5932 82.1108 16.7787 82.0684 15.9588C82.0415 15.4452 82.0657 14.9312 81.9903 14.4176C81.8323 13.3412 81.3605 12.4247 80.6024 11.6471C80.298 11.3347 79.9638 11.0506 79.6506 10.7458C78.8078 9.92479 78.7863 8.54413 79.5724 7.67431C80.6784 6.45146 82.6421 6.15212 84.2716 7.37985C85.6154 8.39229 86.576 9.65744 87.1034 11.2496C87.6 12.7479 88.0096 14.2647 88.1808 15.8335C88.287 16.8058 88.0663 17.7559 87.8813 18.7054C87.6958 19.6572 87.1656 20.4597 86.7395 21.3079C86.6746 21.4375 86.6058 21.5655 86.5386 21.694C86.3811 21.9944 86.3905 22.0112 86.7478 22.015C87.1882 22.0204 87.6248 22.0882 88.063 22.1083C88.8551 22.1441 89.3864 22.5611 89.8257 23.1609C90.3476 23.8729 90.5518 24.6505 90.3751 25.516C90.2237 26.2595 89.7464 26.7416 89.0748 27.0615C88.8342 27.1759 88.5981 27.2979 88.3993 27.4747C88.1753 27.6748 88.1885 27.8147 88.45 27.9449C88.8017 28.1195 89.1634 28.2757 89.5191 28.4432C89.8851 28.6157 90.2265 28.8288 90.5248 29.0999C91.0192 29.549 90.9933 30.3602 90.4648 30.7555C90.1367 31.0012 89.7872 31.2187 89.4475 31.4486C89.1755 31.6333 89.1691 31.82 89.4282 32.0088C89.7954 32.2788 90.1538 32.5603 90.5254 32.8243C91.1717 33.2831 91.3688 33.9816 91.5664 34.6811C91.5956 34.7852 91.5466 34.8557 91.4602 34.9067C90.7368 35.3357 90.0244 35.7896 89.159 35.8958C88.5232 35.9739 87.8973 35.8584 87.2702 35.7858C85.7035 35.6046 84.1896 35.2212 82.7296 34.6312C82.6894 34.615 82.6437 34.6128 82.5309 34.59H82.5314ZM63.6913 2.60775C63.5449 2.69181 63.4535 2.67879 63.3665 2.67608C62.7417 2.65439 62.1306 2.54593 61.5179 2.42609C60.1785 2.16471 58.827 2.13976 57.4661 2.25689C55.7849 2.40168 54.4752 3.15329 53.5041 4.49978C52.8011 5.47481 52.0194 6.38151 51.122 7.19005C50.8853 7.40371 50.6745 7.64286 50.4857 7.90044C49.7827 8.8592 49.0896 9.82555 48.2225 10.6547C47.5371 11.3098 47.2239 12.1134 47.1941 13.0576C47.1683 13.8807 46.9905 14.6833 46.6959 15.4626C46.3755 16.3091 46.1025 17.1735 46.0513 18.0862C45.9753 19.4402 45.9951 20.7954 45.9935 22.1506C45.9935 22.3312 45.9935 22.5134 46.0172 22.6918C46.1779 23.9233 46.5269 25.1136 46.849 26.3088C47.1947 27.5919 47.6125 28.8575 47.9153 30.1498C48.1515 31.1568 48.5374 32.07 49.165 32.8927C49.6995 33.5933 50.2065 34.3113 51.0103 34.7608C51.3076 34.9268 51.6544 34.9729 51.9296 35.1404C52.8886 35.725 53.8713 36.2722 54.805 36.898C55.3979 37.2949 56.0541 37.5845 56.7136 37.8448C57.1738 38.027 57.6417 38.187 58.0596 38.4495C58.7273 38.8686 59.4502 39.1376 60.2264 39.2732C60.9387 39.3979 61.6517 39.5216 62.3657 39.636C62.6729 39.6848 62.9839 39.7374 63.2933 39.7379C65.677 39.7428 68.0618 39.7824 70.4417 39.5904C71.5774 39.4988 72.6729 39.2548 73.6814 38.719C75.034 37.9999 76.0816 37.0102 76.5281 35.5038C77.0148 33.8623 77.6225 32.2636 78.3586 30.7165C78.75 29.8939 78.8716 29.0403 78.7819 28.1558C78.6454 26.8066 78.538 25.4574 78.5821 24.1006C78.6256 22.7574 78.4989 21.431 78.1995 20.1203C77.8669 18.6653 77.4508 17.2364 76.9311 15.8335C76.5793 14.8845 76.3035 13.9084 75.9974 12.9431C75.7343 12.1129 75.3478 11.3618 74.7021 10.7415C74.2176 10.2762 73.7629 9.77783 73.4651 9.16125C73.252 8.72038 73.0593 8.27136 72.8815 7.81639C72.3497 6.45417 71.5113 5.35496 70.1648 4.6744C68.8925 4.03125 67.6275 3.37508 66.4191 2.61751C65.8774 2.27804 65.2856 2.07577 64.6497 1.98141C64.0778 1.89682 63.503 1.83934 62.9266 1.81548C62.3238 1.79053 61.7188 1.81005 61.061 1.81005C61.9599 2.05679 62.8088 2.2878 63.6913 2.60829V2.60775ZM59.2999 1.49282C59.361 1.58717 59.4314 1.56711 59.4915 1.56819C60.4279 1.58067 61.3599 1.50529 62.2919 1.43262C62.456 1.41961 62.6239 1.39575 62.7852 1.41635C63.2955 1.48143 63.8064 1.51234 64.3205 1.51939C65.1546 1.53078 65.9242 1.73739 66.6233 2.2146C67.6423 2.9098 68.7197 3.5112 69.8394 4.03559C70.1394 4.17604 70.4422 4.3192 70.8089 4.4141C70.7714 4.32896 70.7588 4.28612 70.7356 4.24925C70.0602 3.18149 69.3412 2.14627 68.3916 1.28946C67.9902 0.927214 67.5212 0.68861 66.9795 0.611605C66.6261 0.561173 66.2688 0.539482 65.9148 0.491761C64.5407 0.306842 63.1914 0.396861 61.8636 0.804116C61.4915 0.918538 61.121 1.00313 60.7081 0.953787C60.1653 0.889255 59.7111 1.16094 59.2999 1.49336V1.49282ZM47.6505 31.0061C47.6968 30.9567 47.6659 30.9047 47.6577 30.8537C47.5834 30.4069 47.4507 29.9746 47.3158 29.5435C46.8055 27.9123 46.375 26.2605 45.9467 24.6071C45.6924 23.6261 45.5112 22.6544 45.547 21.643C45.5602 21.2721 45.5492 20.9001 45.5492 20.5286C45.5024 20.6262 45.4931 20.7238 45.4832 20.822C45.4733 20.9207 45.4578 21.0194 45.4551 21.1181C45.3956 23.3544 45.5156 25.5729 46.0221 27.7648C46.2996 28.9665 46.9673 29.9676 47.6021 30.9914C47.6087 31.0017 47.634 31.0012 47.6511 31.0055L47.6505 31.0061ZM78.5573 18.8177C78.674 16.7977 77.8146 15.1627 76.8573 13.4833C76.7935 14.1801 78.0651 18.1588 78.5573 18.8177ZM73.1397 6.5751C73.121 6.59028 73.1017 6.60493 73.083 6.62011C73.6247 7.78927 74.1659 8.95898 74.7076 10.1281C74.8364 9.28489 74.7654 8.51051 74.1928 7.84025C73.8367 7.42323 73.5174 6.97476 73.1397 6.5751ZM79.5867 10.21C79.9848 10.7762 80.4687 11.1585 81.0918 11.3683C81.1342 11.3824 81.1865 11.3955 81.219 11.3532C81.2597 11.3006 81.2223 11.2512 81.1948 11.2057C80.9669 10.8331 80.6448 10.5587 80.2529 10.37C80.0624 10.2784 79.8626 10.191 79.5873 10.21H79.5867ZM71.7524 4.38753C71.4243 3.82952 71.0544 3.30784 70.489 2.9559C70.7615 3.56217 71.1304 4.08493 71.7524 4.38753Z" fill="black"/>
<path d="M83.4921 1.08792C83.4981 2.29071 83.2895 3.42299 82.7153 4.49726C82.505 3.97558 82.892 1.62966 83.4921 1.08792Z" fill="white"/>
<path d="M78.3036 6.40227C77.573 5.5037 77.2576 4.48475 76.9383 3.4338C77.5967 3.73043 78.3828 5.43917 78.3036 6.40227Z" fill="white"/>
<path d="M88.9752 34.7215C88.7908 34.703 88.504 34.7562 88.4495 34.6038C88.3861 34.4265 88.673 34.3652 88.8139 34.2708C89.0022 34.1445 88.9433 34.0295 88.859 33.8836C88.7897 33.7638 88.6196 33.6374 88.717 33.5046C88.8029 33.388 88.9928 33.4558 89.1348 33.4726C89.6705 33.5366 89.6699 33.5393 89.5163 34.0626C89.4806 34.1841 89.4393 34.3039 89.4112 34.427C89.3584 34.6602 89.2295 34.7757 88.9752 34.7215Z" fill="black"/>
<path d="M90.5376 5.28672C90.1329 6.0611 89.5599 6.669 88.7534 7.04535C89.1266 6.24331 89.7399 5.67554 90.5376 5.28672Z" fill="white"/>
<path d="M88.8425 29.6841C88.4351 29.7101 88.3641 29.638 88.385 29.3777C88.3965 29.2307 88.4598 29.1635 88.6151 29.1982C88.9173 29.2654 89.2201 29.3289 89.5223 29.3966C89.5823 29.4102 89.6605 29.42 89.6484 29.5067C89.639 29.5734 89.5697 29.5718 89.5179 29.5799C89.2482 29.6228 88.9784 29.664 88.8425 29.6846V29.6841Z" fill="black"/>
<path d="M88.3889 24.5361C88.3828 24.5361 88.3448 24.5426 88.3096 24.5351C88.1846 24.5079 87.9765 24.5958 87.954 24.4407C87.9358 24.3154 88.1505 24.284 88.2705 24.2281C88.5474 24.0991 88.8453 24.1403 89.137 24.1414C89.1921 24.1414 89.2565 24.15 89.2724 24.2119C89.2906 24.2829 89.2378 24.3306 89.1838 24.3664C88.9515 24.5182 88.69 24.5464 88.3894 24.5361H88.3889Z" fill="black"/>
<path d="M88.9587 30.6043C88.6857 30.5723 88.4082 30.5599 88.1858 30.3744C88.1252 30.324 88.0476 30.2632 88.0928 30.1721C88.1324 30.0919 88.2183 30.1212 88.2893 30.1271C88.5453 30.1483 88.7941 30.2003 89.0231 30.3185C89.1173 30.3674 89.2659 30.4167 89.2417 30.529C89.2125 30.6651 89.055 30.5767 88.9593 30.6049L88.9587 30.6043Z" fill="black"/>
<path d="M88.6977 25.4179C88.5017 25.4022 88.3602 25.3176 88.358 25.1072C88.3558 24.9304 88.4593 24.8111 88.641 24.8057C88.843 24.7997 88.9757 24.9152 88.9806 25.1159C88.985 25.2867 88.8876 25.4022 88.6977 25.4179Z" fill="black"/>
<path d="M71.0208 20.852C72.1989 20.3487 73.5592 21.4317 73.5906 22.9175C73.1557 22.5298 72.8683 22.0547 72.4769 21.6274C72.3519 21.9013 72.3486 22.1632 72.3172 22.4159C72.1378 23.8627 71.8394 25.2835 71.4061 26.6777C71.1623 27.4635 70.9228 28.2498 70.5738 28.9998C70.3238 29.5361 69.9649 29.9873 69.5228 30.3739C68.0414 31.67 66.3701 32.5875 64.3915 32.934C63.2982 33.1255 62.2115 33.3608 61.0978 33.3494C59.8636 33.337 58.6877 33.0289 57.5536 32.5561C56.816 32.2486 56.1559 31.8375 55.6527 31.2123C55.5531 31.0887 55.4589 31.106 55.345 31.1792C55.1991 31.2725 55.0516 31.3647 54.9018 31.4514C54.8231 31.497 54.7686 31.4981 54.7653 31.3771C54.7477 30.7015 55.2074 30.1543 55.8438 30.1283C56.2473 30.112 56.615 30.2687 56.9773 30.4244C57.0251 30.445 57.0835 30.4748 57.0653 30.5431C57.0483 30.6082 56.9828 30.6055 56.9305 30.6158C56.7147 30.6575 56.4967 30.6901 56.2831 30.741C56.1906 30.7627 56.0535 30.7345 56.0166 30.8435C55.9797 30.952 56.0981 31.0138 56.1636 31.0854C56.5798 31.5447 57.0747 31.8777 57.6654 32.1011C58.506 32.4189 59.345 32.7301 60.2396 32.8635C61.1584 33.0007 62.0684 32.9048 62.9751 32.7524C64.2517 32.5376 65.5349 32.3126 66.7009 31.7426C67.9049 31.1543 69.0092 30.4043 69.8229 29.3148C70.2539 28.7373 70.4488 28.0513 70.6762 27.3849C71.1314 26.0481 71.508 24.6892 71.7634 23.2998C71.8647 22.7483 71.9104 22.1903 71.9126 21.6291C71.9132 21.481 71.8372 21.4051 71.7199 21.3303C71.4843 21.1806 71.2311 21.0531 71.0213 20.8514L71.0208 20.852Z" fill="black"/>
<path d="M59.8725 14.0039C59.9171 15.0689 59.5967 16.0201 58.8733 16.8173C58.2677 17.4848 57.4893 17.8964 56.6382 18.1979C55.0181 18.7722 53.5768 18.3313 52.1983 17.4821C51.6588 17.1497 51.1568 16.7668 50.74 16.2956C49.8471 15.2853 49.6445 14.1053 49.9236 12.8212C50.1103 11.9616 50.6118 11.2778 51.1727 10.6233C51.8879 9.78926 52.7032 9.0832 53.7717 8.7318C54.7769 8.40101 55.8042 8.23019 56.7714 8.82725C57.5493 9.30771 58.2562 9.89012 58.8733 10.5626C59.1777 10.8944 59.3297 11.3245 59.4733 11.7436C59.7233 12.4741 59.9071 13.2192 59.873 14.0033L59.8725 14.0039ZM55.3429 8.90208C54.6492 8.89991 54.0404 9.03928 53.4854 9.3332C52.1334 10.0501 51.1243 11.1086 50.5242 12.4963C49.982 13.7501 50.1846 14.9382 51.0819 15.9897C51.5295 16.5147 52.0971 16.9002 52.685 17.2549C53.4315 17.7061 54.2358 17.9924 55.1194 18.0119C55.9303 18.0298 56.6806 17.7738 57.3781 17.4056C58.3553 16.8905 59.034 16.1188 59.312 15.0293C59.5598 14.0576 59.4387 13.1113 59.1645 12.1721C58.9102 11.2995 58.4114 10.5983 57.6264 10.0994C57.3737 9.93893 57.1287 9.75347 56.919 9.54143C56.4659 9.0832 55.9237 8.8831 55.3429 8.90208Z" fill="black"/>
<path d="M68.979 9.06262C69.5499 9.02195 70.0745 9.16294 70.5799 9.39883C70.8892 9.54308 71.1562 9.75186 71.2856 10.0555C71.7282 11.0978 72.3409 12.0582 72.7792 13.1021C72.9559 13.524 72.9685 13.9524 72.8386 14.3754C72.4775 15.5543 71.7959 16.5315 70.8661 17.3498C70.2798 17.8661 69.5691 18.019 68.8237 18.0027C67.8725 17.9816 66.9146 17.9555 65.9814 17.7495C64.7747 17.4832 63.895 16.7815 63.3318 15.6958C62.9905 15.038 63.1529 14.3889 63.4502 13.7924C64.2198 12.2485 65.2795 10.914 66.6817 9.87767C67.3517 9.38202 68.0905 8.9829 68.979 9.0637V9.06262ZM68.4989 17.5651C69.4409 17.6378 70.2688 17.3834 70.925 16.7045C71.4332 16.1785 71.8284 15.5711 72.1532 14.9166C72.5325 14.153 72.5199 13.4199 72.1048 12.6656C71.7855 12.0848 71.4034 11.5419 71.0896 10.9606C70.9289 10.6634 70.718 10.6005 70.4175 10.6531C70.1196 10.7057 69.8202 10.748 69.5212 10.7936C69.4585 10.8033 69.3842 10.8223 69.3407 10.7654C69.284 10.6916 69.3511 10.6304 69.388 10.5713C69.4783 10.4254 69.6357 10.3912 69.786 10.3549C70.0123 10.3001 70.2215 10.2139 70.4048 10.0718C70.4775 10.0154 70.56 9.95196 70.5529 9.85544C70.5441 9.74102 70.4241 9.74264 70.3415 9.71607C70.2198 9.67702 70.0916 9.65696 69.9699 9.61846C69.1711 9.36358 68.4098 9.42595 67.6533 9.80229C66.8991 10.1781 66.3156 10.7464 65.7409 11.3299C64.9421 12.1406 64.2958 13.0582 63.8245 14.088C63.6038 14.5701 63.4997 15.0749 63.7811 15.5749C64.3547 16.5944 65.2234 17.2131 66.3938 17.4062C67.0913 17.5212 67.7976 17.538 68.4995 17.564L68.4989 17.5651Z" fill="black"/>
<path d="M54.4086 13.6943C54.4081 12.8554 54.7444 12.3728 55.432 12.2237C55.6043 12.1863 55.7794 12.1792 55.95 12.2123C56.2759 12.2746 56.5204 12.4227 56.5958 12.7828C56.6426 13.0062 56.6828 13.2247 56.6596 13.4509C56.6002 14.03 56.2374 14.3679 55.65 14.3896C55.339 14.4009 55.0301 14.3776 54.7196 14.35C54.4857 14.3288 54.386 14.2491 54.4064 14.0192C54.4158 13.9118 54.4081 13.8028 54.4081 13.6949L54.4086 13.6943Z" fill="black"/>
<path d="M67.7717 11.7714C68.0579 11.7795 68.3128 12.1179 68.538 12.4709C68.6894 12.7084 68.7516 12.9888 68.7797 13.2691C68.8253 13.7301 68.609 14.1184 68.1565 14.3114C67.6896 14.5104 67.1865 14.6346 66.7642 14.2447C66.3211 13.8358 66.0959 13.3185 66.2666 12.7057C66.3954 12.2431 67.0736 11.7686 67.7722 11.7719L67.7717 11.7714ZM67.7871 12.5343C67.7717 12.3489 67.6588 12.2377 67.4705 12.2383C67.2685 12.2388 67.1413 12.3635 67.1457 12.5636C67.1507 12.7697 67.2933 12.8641 67.4942 12.8624C67.7034 12.8603 67.7755 12.7269 67.7865 12.5349L67.7871 12.5343Z" fill="black"/>
<path d="M17.9462 63.426C17.7588 63.6736 17.5401 63.7974 17.2902 63.7974C17.1965 63.7974 16.9466 63.751 16.5404 63.6581C16.2593 63.5962 16.025 63.6117 15.8376 63.7045C15.369 63.6117 15.0566 63.3486 14.9004 62.9153C14.7754 62.5129 14.6661 62.095 14.5723 61.6617C13.3228 62.0022 11.5109 62.6522 9.13664 63.6117C8.38688 63.7355 7.63713 63.7974 6.88738 63.7974C5.35663 63.7974 3.99771 63.0236 2.8106 61.476C1.90465 60.1141 0.998694 58.7368 0.0927429 57.3439C0.155222 56.6011 0.38952 55.2856 0.795636 53.3975C1.13927 51.7571 1.31109 50.4571 1.31109 49.4976C1.31109 49.219 1.26423 48.8476 1.17051 48.3833C1.10803 47.8881 1.07679 47.5166 1.07679 47.269C1.07679 46.4952 1.56101 45.7214 2.52944 44.9476C3.49787 44.1738 4.40382 43.7869 5.24729 43.7869C5.90333 43.7869 6.91862 44.0036 8.29316 44.4369C9.69895 44.8703 10.7923 45.0869 11.5733 45.0869C11.6046 45.0869 12.0263 45.1179 12.8385 45.1798C12.8385 44.4988 12.6511 43.5703 12.2762 42.3941C11.9013 41.187 11.6827 40.3048 11.6202 39.7477C11.5577 38.881 11.5109 38.4013 11.4796 38.3084C11.3859 37.906 11.1985 37.4418 10.9173 36.9156C10.6361 36.4823 10.4956 36.0799 10.4956 35.7085C10.4956 35.1823 10.6986 34.6251 11.1047 34.037C12.6667 32.9847 13.8382 32.4585 14.6192 32.4585C15.3065 32.4585 15.9156 32.7371 16.4467 33.2942C16.478 34.2847 16.5248 35.2751 16.5873 36.2656C16.681 37.3799 16.9309 38.3239 17.3371 39.0977C17.1809 39.6548 17.1028 40.2429 17.1028 40.862C17.1028 41.3572 17.1652 42.0536 17.2902 42.9512C17.4152 43.8488 17.4776 44.5143 17.4776 44.9476C17.4464 47.0214 17.4933 50.1011 17.6182 54.1868C17.8369 57.4677 17.9462 60.5474 17.9462 63.426ZM13.8226 54.8832C13.8226 53.1809 13.5414 51.6797 12.9791 50.3797C10.4799 49.2345 8.76176 48.6619 7.82457 48.6619C6.69994 48.6619 5.90333 49.219 5.43473 50.3333C5.05985 51.1071 4.7006 51.8809 4.35696 52.6547C4.01332 53.5213 3.84151 54.3416 3.84151 55.1154C3.84151 56.8177 4.41944 58.1641 5.57531 59.1546C6.2001 59.0927 7.0592 58.8141 8.15258 58.3189C9.24597 57.8237 10.0738 57.5296 10.6361 57.4368C11.2922 56.7868 12.3543 55.9356 13.8226 54.8832Z" fill="black"/>
<path d="M39.275 48.7083C39.1813 50.1321 38.4159 50.8749 36.9789 50.9368C35.4169 51.0297 34.1829 51.2309 33.277 51.5404C32.8084 51.6952 32.1211 51.7725 31.2152 51.7725C30.6841 51.7725 30.2311 51.9737 29.8562 52.3761L26.1075 53.1654C26.2012 53.413 26.2481 54.3261 26.2481 55.9046C26.2481 56.7403 26.5448 57.3749 27.1384 57.8082C27.7632 57.6844 29.0909 57.2511 31.1214 56.5082C32.9646 55.8582 34.0736 55.5332 34.4485 55.5332C35.6668 55.5332 36.729 56.2296 37.6349 57.6225V57.8546C37.6662 58.876 36.9008 59.9439 35.3388 61.0582C34.5891 61.182 33.5425 61.507 32.1992 62.0331C30.8559 62.5593 29.8406 62.8843 29.1533 63.0081C28.9659 63.3796 28.6067 63.5653 28.0756 63.5653C27.7944 63.5653 27.5289 63.5034 27.279 63.3796C27.1852 63.2557 26.8104 63.0081 26.1543 62.6367C25.717 62.3581 25.5452 62.0022 25.6389 61.5689C23.8582 60.5474 22.9679 58.9689 22.9679 56.8332C22.9679 55.2856 23.0304 53.3666 23.1553 51.0761C23.2803 50.5809 23.5614 49.9 23.9988 49.0333C23.9363 48.8166 23.9051 48.6154 23.9051 48.4297C23.9051 48.1821 23.9832 47.8571 24.1394 47.4547C24.3268 47.0214 24.4205 46.6809 24.4205 46.4333C24.4205 46.2167 24.3581 45.969 24.2331 45.6905C24.3893 44.5762 24.5455 43.4619 24.7017 42.3477C24.9204 41.0477 25.3421 40.0263 25.9669 39.2834C26.0606 37.7049 27.1384 36.9156 29.2002 36.9156C29.7313 36.9156 30.4342 37.0858 31.3089 37.4263C32.2148 37.7668 32.9177 37.937 33.4176 37.937C34.0424 37.937 34.6984 37.7977 35.3857 37.5191C35.4481 37.643 35.7137 37.8906 36.1823 38.262C36.5259 38.5406 36.6977 38.8037 36.6977 39.0513C36.6977 39.1441 36.6821 39.2525 36.6509 39.3763C36.8696 40.9858 37.1039 42.6108 37.3538 44.2512C37.6974 46.1393 38.3378 47.625 39.275 48.7083ZM35.3388 47.7333L35.0108 45.7369C34.6984 45.3036 34.5266 44.6072 34.4953 43.6476C34.4641 42.781 34.2142 42.1155 33.7456 41.6512C33.3395 41.806 32.6991 41.9453 31.8243 42.0691C30.9496 42.1619 30.3092 42.3012 29.9031 42.4869C29.7469 42.8893 29.3408 43.6941 28.6848 44.9012C28.1224 45.8917 27.81 46.7428 27.7476 47.4547C28.2786 47.4857 29.1533 47.625 30.3717 47.8726C31.4963 48.0893 32.3867 48.1976 33.0427 48.1976C33.8549 48.1976 34.6203 48.0428 35.3388 47.7333Z" fill="black"/>
<path d="M61.0065 42.3012C61.0065 43.2607 60.6629 44.0345 59.9756 44.6226C56.9141 45.2726 54.7429 45.8452 53.4621 46.3405C51.1191 47.2071 49.3072 48.4452 48.0264 50.0547C48.0264 50.519 47.8233 50.9678 47.4172 51.4011C47.0423 51.8345 46.8549 52.1749 46.8549 52.4225C46.8549 52.6702 47.0423 53.0416 47.4172 53.5368C47.7921 54.032 47.9795 54.5118 47.9795 54.9761C47.9795 55.0689 47.9639 55.2082 47.9327 55.3939C47.9327 55.5796 47.9327 55.7189 47.9327 55.8118C47.9327 56.2761 48.1357 56.7249 48.5419 57.1582C48.823 57.2511 49.0573 57.4677 49.2447 57.8082C49.4634 58.1177 49.6821 58.4272 49.9008 58.7368C49.9008 60.6558 49.2135 61.6153 47.839 61.6153C46.3707 61.6153 45.1836 61.0272 44.2776 59.851C43.9965 58.551 43.8559 55.9665 43.8559 52.0975C43.8559 51.2309 43.8403 49.9619 43.809 48.2904C43.809 46.619 43.809 45.3655 43.809 44.5298C43.809 42.7655 43.4185 41.156 42.6376 39.7013C42.9812 38.9894 43.5747 38.5251 44.4182 38.3084C44.5432 38.2775 45.0118 38.1072 45.824 37.7977C46.48 37.5191 46.9486 37.3799 47.2298 37.3799C48.3857 37.3799 49.1823 38.0299 49.6196 39.3298C49.3697 39.8251 49.2135 40.6298 49.151 41.7441C49.1198 42.8274 48.9792 43.6167 48.7293 44.1119C49.6665 43.5857 50.5256 43.0596 51.3066 42.5334C52.3375 41.7596 53.3528 40.9703 54.3524 40.1655C55.6957 39.1441 56.8204 38.6334 57.7263 38.6334C58.5386 38.6334 59.1633 39.0513 59.6007 39.887C60.163 40.9393 60.6316 41.5739 61.0065 41.7905C61.0065 41.9762 61.0065 42.1465 61.0065 42.3012Z" fill="black"/>
<path d="M80.5367 47.1762C80.4742 48.7857 80.4117 50.3952 80.3492 52.0047C80.1618 53.8309 79.5682 55.2701 78.5686 56.3225C78.3811 57.1582 77.6939 57.8701 76.5068 58.4582H76.2725C76.0538 58.4272 75.7414 58.5046 75.3353 58.6903C74.9604 58.8451 74.6948 58.9379 74.5386 58.9689C73.9139 59.0308 73.1016 59.0617 72.102 59.0617C71.2897 59.0617 70.4775 59.0308 69.6653 58.9689C69.4778 58.7213 69.1498 58.5975 68.6812 58.5975C68.4313 58.7832 68.2907 58.9844 68.2595 59.201C68.2907 58.551 68.3063 58.7677 68.3063 59.851C68.3063 59.9439 68.2595 60.176 68.1658 60.5474C67.8534 61.476 67.6972 62.9927 67.6972 65.0974C67.6972 66.3974 68.0564 67.5116 68.7749 68.4402C68.7749 68.564 68.7749 68.6723 68.7749 68.7652C68.7749 69.0747 68.525 69.4307 68.0252 69.833C67.5566 70.2664 67.3535 70.7771 67.416 71.3652C67.1973 71.489 66.963 71.5509 66.7131 71.5509C66.2758 71.5509 65.8696 71.458 65.4948 71.2723C64.9949 71.0557 64.745 70.7461 64.745 70.3438C64.745 70.158 64.7919 69.8795 64.8856 69.5081C65.0105 69.1366 65.073 68.8581 65.073 68.6723C65.073 68.3319 64.9793 68.0378 64.7919 67.7902C64.6044 63.395 64.5107 59.6344 64.5107 56.5082C64.5107 56.0439 64.4482 55.332 64.3233 54.3725C64.2295 53.413 64.1827 52.7011 64.1827 52.2368C64.1827 51.9583 64.1983 51.5714 64.2295 51.0761C64.292 50.5499 64.3233 50.1476 64.3233 49.869C64.3233 48.3833 63.8078 47.0833 62.7769 45.969C62.7144 45.5667 62.6832 45.1798 62.6832 44.8083C62.6832 43.9726 62.8862 43.2143 63.2924 42.5334C63.761 41.7286 64.3857 41.3262 65.1667 41.3262C65.4479 41.3262 65.9165 41.4191 66.5725 41.6048C67.2286 41.7596 67.7284 41.837 68.072 41.837H68.3063C71.4615 40.506 73.9451 39.8405 75.757 39.8405C77.2253 39.8405 78.2406 40.2584 78.8029 41.0941C79.1153 41.5893 79.3808 42.5643 79.5995 44.0191C79.8182 45.4738 80.1306 46.5262 80.5367 47.1762ZM76.9285 48.8012C76.9285 46.7893 76.538 45.1488 75.757 43.8798C75.5071 43.8179 75.2572 43.7869 75.0072 43.7869C73.9763 43.7869 72.9142 44.2512 71.8208 45.1798C71.321 45.6441 70.5244 46.5262 69.431 47.8262C69.431 48.0428 69.431 48.2595 69.431 48.4762C69.431 49.0023 69.3529 49.6988 69.1967 50.5654C68.978 51.6178 68.853 52.3142 68.8218 52.6547C69.3529 53.088 70.2276 53.6142 71.4459 54.2332C71.7271 54.1404 72.4456 54.0939 73.6015 54.0939C74.7573 54.0939 75.5227 53.8154 75.8976 53.2582C76.5849 52.2059 76.9285 50.7202 76.9285 48.8012Z" fill="black"/>
<path d="M102.33 63.426C102.143 63.6736 101.924 63.7974 101.674 63.7974C101.58 63.7974 101.33 63.751 100.924 63.6581C100.643 63.5962 100.409 63.6117 100.221 63.7045C99.7527 63.6117 99.4403 63.3486 99.2841 62.9153C99.1592 62.5129 99.0499 62.095 98.9561 61.6617C97.7065 62.0022 95.8946 62.6522 93.5204 63.6117C92.7707 63.7355 92.0209 63.7974 91.2712 63.7974C89.7404 63.7974 88.3815 63.0236 87.1944 61.476C86.2884 60.1141 85.3825 58.7368 84.4765 57.3439C84.539 56.6011 84.7733 55.2856 85.1794 53.3975C85.5231 51.7571 85.6949 50.4571 85.6949 49.4976C85.6949 49.219 85.648 48.8476 85.5543 48.3833C85.4918 47.8881 85.4606 47.5166 85.4606 47.269C85.4606 46.4952 85.9448 45.7214 86.9132 44.9476C87.8817 44.1738 88.7876 43.7869 89.6311 43.7869C90.2871 43.7869 91.3024 44.0036 92.677 44.4369C94.0827 44.8703 95.1761 45.0869 95.9571 45.0869C95.9884 45.0869 96.4101 45.1179 97.2223 45.1798C97.2223 44.4988 97.0349 43.5703 96.66 42.3941C96.2851 41.187 96.0665 40.3048 96.004 39.7477C95.9415 38.881 95.8946 38.4013 95.8634 38.3084C95.7697 37.906 95.5822 37.4418 95.3011 36.9156C95.0199 36.4823 94.8793 36.0799 94.8793 35.7085C94.8793 35.1823 95.0824 34.6251 95.4885 34.037C97.0505 32.9847 98.222 32.4585 99.003 32.4585C99.6903 32.4585 100.299 32.7371 100.831 33.2942C100.862 34.2847 100.909 35.2751 100.971 36.2656C101.065 37.3799 101.315 38.3239 101.721 39.0977C101.565 39.6548 101.487 40.2429 101.487 40.862C101.487 41.3572 101.549 42.0536 101.674 42.9512C101.799 43.8488 101.861 44.5143 101.861 44.9476C101.83 47.0214 101.877 50.1011 102.002 54.1868C102.221 57.4677 102.33 60.5474 102.33 63.426ZM98.2064 54.8832C98.2064 53.1809 97.9252 51.6797 97.3629 50.3797C94.8637 49.2345 93.1455 48.6619 92.2084 48.6619C91.0837 48.6619 90.2871 49.219 89.8185 50.3333C89.4436 51.1071 89.0844 51.8809 88.7408 52.6547C88.3971 53.5213 88.2253 54.3416 88.2253 55.1154C88.2253 56.8177 88.8032 58.1641 89.9591 59.1546C90.5839 59.0927 91.443 58.8141 92.5364 58.3189C93.6298 57.8237 94.4576 57.5296 95.0199 57.4368C95.676 56.7868 96.7381 55.9356 98.2064 54.8832Z" fill="black"/>
<path d="M123.659 48.7083C123.565 50.1321 122.8 50.8749 121.363 50.9368C119.801 51.0297 118.567 51.2309 117.661 51.5404C117.192 51.6952 116.505 51.7725 115.599 51.7725C115.068 51.7725 114.615 51.9737 114.24 52.3761L110.491 53.1654C110.585 53.413 110.632 54.3261 110.632 55.9046C110.632 56.7403 110.929 57.3749 111.522 57.8082C112.147 57.6844 113.475 57.2511 115.505 56.5082C117.348 55.8582 118.457 55.5332 118.832 55.5332C120.051 55.5332 121.113 56.2296 122.019 57.6225V57.8546C122.05 58.876 121.285 59.9439 119.723 61.0582C118.973 61.182 117.926 61.507 116.583 62.0331C115.24 62.5593 114.224 62.8843 113.537 63.0081C113.35 63.3796 112.99 63.5653 112.459 63.5653C112.178 63.5653 111.913 63.5034 111.663 63.3796C111.569 63.2557 111.194 63.0081 110.538 62.6367C110.101 62.3581 109.929 62.0022 110.023 61.5689C108.242 60.5474 107.352 58.9689 107.352 56.8332C107.352 55.2856 107.414 53.3666 107.539 51.0761C107.664 50.5809 107.945 49.9 108.383 49.0333C108.32 48.8166 108.289 48.6154 108.289 48.4297C108.289 48.1821 108.367 47.8571 108.523 47.4547C108.711 47.0214 108.804 46.6809 108.804 46.4333C108.804 46.2167 108.742 45.969 108.617 45.6905C108.773 44.5762 108.929 43.4619 109.085 42.3477C109.304 41.0477 109.726 40.0263 110.351 39.2834C110.444 37.7049 111.522 36.9156 113.584 36.9156C114.115 36.9156 114.818 37.0858 115.693 37.4263C116.599 37.7668 117.302 37.937 117.801 37.937C118.426 37.937 119.082 37.7977 119.769 37.5191C119.832 37.643 120.097 37.8906 120.566 38.262C120.91 38.5406 121.082 38.8037 121.082 39.0513C121.082 39.1441 121.066 39.2525 121.035 39.3763C121.253 40.9858 121.488 42.6108 121.738 44.2512C122.081 46.1393 122.722 47.625 123.659 48.7083ZM119.723 47.7333L119.395 45.7369C119.082 45.3036 118.91 44.6072 118.879 43.6476C118.848 42.781 118.598 42.1155 118.129 41.6512C117.723 41.806 117.083 41.9453 116.208 42.0691C115.333 42.1619 114.693 42.3012 114.287 42.4869C114.131 42.8893 113.725 43.6941 113.069 44.9012C112.506 45.8917 112.194 46.7428 112.131 47.4547C112.662 47.4857 113.537 47.625 114.755 47.8726C115.88 48.0893 116.77 48.1976 117.426 48.1976C118.239 48.1976 119.004 48.0428 119.723 47.7333Z" fill="black"/>
<path d="M149.42 59.8975C149.42 60.8879 149.014 61.3831 148.202 61.3831C147.515 61.3831 146.609 60.9189 145.484 59.9903C144.172 58.876 143.25 58.2106 142.719 57.9939C142.438 57.4987 141.891 56.9415 141.079 56.3225C140.298 55.6725 139.767 55.1463 139.486 54.7439C139.299 54.7439 138.986 54.713 138.549 54.6511C138.143 54.5892 137.846 54.5582 137.658 54.5582C137.252 54.5582 136.893 54.6511 136.581 54.8368C136.393 55.363 135.987 56.1213 135.362 57.1118C134.769 58.0713 134.378 58.8451 134.191 59.4332C134.441 59.6498 134.566 59.9284 134.566 60.2689C134.566 60.3927 134.488 60.7796 134.331 61.4296C134.238 61.4605 133.55 61.801 132.27 62.451C131.332 62.9153 130.676 63.1474 130.301 63.1474C129.739 63.1474 129.255 62.9307 128.849 62.4974C128.474 62.095 128.287 61.6153 128.287 61.0582C128.287 60.501 128.755 59.3713 129.692 57.6689C130.598 56.1213 131.317 55.0535 131.848 54.4654C132.691 53.5678 133.363 52.7475 133.863 52.0047C133.019 50.519 132.129 49.544 131.192 49.0797C130.348 48.8321 129.505 48.5845 128.661 48.3369C127.662 47.9655 127.162 47.3464 127.162 46.4798C127.162 45.8607 127.474 45.1333 128.099 44.2976C128.63 43.6786 129.161 43.0441 129.692 42.3941C130.005 42.2084 130.333 42.1155 130.676 42.1155C131.332 42.1155 131.957 42.3941 132.551 42.9512C133.144 43.5084 133.566 44.1274 133.816 44.8083C133.753 45.056 133.722 45.2881 133.722 45.5048C133.722 46 134.035 46.4952 134.659 46.9905C135.472 47.6095 135.94 48.0119 136.065 48.1976C136.69 48.3833 137.252 48.4762 137.752 48.4762C138.658 48.4762 139.705 47.4393 140.892 45.3655C142.11 43.2607 143.219 42.2084 144.219 42.2084C144.781 42.2084 145.39 42.4715 146.046 42.9977C146.734 43.4929 147.077 44.0191 147.077 44.5762C147.077 44.6381 146.827 45.3964 146.327 46.8512C145.172 47.6559 143.422 48.8321 141.079 50.3797L140.564 51.169C141.563 51.788 142.688 52.5773 143.938 53.5368C144.562 54.032 145.187 54.388 145.812 54.6047C146.437 54.8213 147.077 55.0535 147.733 55.3011C148.389 55.5177 148.764 55.8582 148.858 56.3225C148.827 56.2296 148.811 56.7558 148.811 57.901C148.811 58.4891 148.998 58.9998 149.373 59.4332C149.405 59.5879 149.42 59.7427 149.42 59.8975Z" fill="black"/>
</svg>
