<svg width="30" height="24" viewBox="0 0 30 24" fill="none" xmlns="http://www.w3.org/2000/svg">
<path d="M25.2444 2.70278C23.4013 1.82461 21.425 1.17758 19.3585 0.806975C19.3209 0.79982 19.2833 0.817708 19.2639 0.853426C19.0097 1.32292 18.7281 1.93534 18.531 2.41674C16.3084 2.07118 14.0972 2.07118 11.9202 2.41674C11.723 1.92467 11.4312 1.32292 11.1759 0.853426C11.1565 0.818881 11.1189 0.800993 11.0813 0.806975C9.01598 1.17635 7.03959 1.82338 5.19536 2.70278C5.17938 2.70994 5.16571 2.72184 5.15662 2.73733C1.40784 8.55336 0.380847 14.2265 0.88463 19.8292C0.886889 19.8566 0.901743 19.8828 0.922244 19.8995C3.39558 21.7858 5.79149 22.9309 8.14283 23.6899C8.18044 23.7018 8.22032 23.6876 8.24426 23.6554C8.80046 22.8666 9.29628 22.0349 9.72139 21.1602C9.74646 21.109 9.72252 21.0482 9.67123 21.0279C8.88478 20.7182 8.13594 20.3404 7.41556 19.9115C7.35858 19.8769 7.354 19.7923 7.40647 19.7518C7.55806 19.6338 7.7097 19.5111 7.85445 19.3872C7.88066 19.3645 7.91714 19.3598 7.94792 19.374C12.6803 21.6178 17.8037 21.6178 22.4803 19.374C22.511 19.3585 22.5475 19.3633 22.5749 19.3859C22.7197 19.5099 22.8712 19.6338 23.024 19.7517C23.0764 19.7923 23.0729 19.8769 23.016 19.9114C22.2956 20.3487 21.5468 20.7181 20.7592 21.0267C20.7079 21.047 20.6851 21.1089 20.7102 21.1601C21.1445 22.0336 21.6403 22.8653 22.1862 23.6541C22.209 23.6875 22.25 23.7018 22.2877 23.6898C24.6504 22.9309 27.0463 21.7857 29.5197 19.8995C29.5413 19.8828 29.555 19.8578 29.5573 19.8304C30.1602 13.353 28.5474 7.7264 25.2819 2.7385C25.274 2.72184 25.2603 2.70994 25.2444 2.70278ZM10.4282 16.4177C9.00344 16.4177 7.82943 15.0594 7.82943 13.3911C7.82943 11.7229 8.98062 10.3645 10.4282 10.3645C11.8871 10.3645 13.0497 11.7348 13.0269 13.3911C13.0269 15.0594 11.8757 16.4177 10.4282 16.4177ZM20.0366 16.4177C18.6119 16.4177 17.4379 15.0594 17.4379 13.3911C17.4379 11.7229 18.5891 10.3645 20.0366 10.3645C21.4956 10.3645 22.6582 11.7348 22.6354 13.3911C22.6354 15.0594 21.4956 16.4177 20.0366 16.4177Z" fill="white"/>
</svg>
