<svg width="24" height="26" viewBox="0 0 24 26" fill="none" xmlns="http://www.w3.org/2000/svg">
<path d="M7.46922 25.6344C8.34433 25.6344 8.59164 25.292 8.59164 24.8544C8.59164 24.4169 8.59164 23.4657 8.57262 22.1149C4.02585 23.0852 3.05562 19.9462 3.05562 19.9462C2.31368 18.1008 1.2293 17.5872 1.2293 17.5872C-0.25458 16.5979 1.34345 16.617 1.34345 16.617C2.97952 16.7311 3.85463 18.2721 3.85463 18.2721C5.31949 20.7452 7.67848 20.0223 8.61067 19.6038C8.68676 18.7857 9.04822 18.0057 9.65699 17.435C6.02338 17.0355 2.19953 15.6467 2.19953 9.48292C2.18051 7.88489 2.78928 6.32491 3.89268 5.16444C3.70244 4.76493 3.15074 3.12886 4.02585 0.903035C4.02585 0.903035 5.39559 0.465481 8.53457 2.55813C11.217 1.83522 14.0325 1.83522 16.7149 2.55813C19.8159 0.484505 21.2046 0.903035 21.2046 0.903035C22.0798 3.10983 21.5281 4.74591 21.3759 5.16444C22.4793 6.32491 23.069 7.88489 23.05 9.48292C23.05 15.6658 19.2261 17.0165 15.5735 17.416C16.1442 17.8916 16.6769 18.8808 16.6769 20.3837C16.6769 22.5525 16.6579 24.2647 16.6579 24.7783C16.6579 25.1968 16.8481 25.5393 17.7803 25.5393L7.46922 25.6344Z" fill="white"/>
</svg>
