<svg width="132" height="92" viewBox="0 0 132 92" fill="none" xmlns="http://www.w3.org/2000/svg">
<path d="M11.6206 8.0863L11.0079 7.38426L10.9622 7.4241L10.9221 7.46951L11.6206 8.0863ZM54.6717 10.4541L53.9976 11.0976L54.6717 10.4541ZM92.5569 49.6308L92.5119 50.5616L92.5569 49.6308ZM112.791 25.3068L111.92 25.6385L112.791 25.3068ZM80.933 22.939L80.2605 22.2939L80.933 22.939ZM88.8975 78.4493L88.3448 79.1995L88.8975 78.4493ZM131.255 86.4275L122.036 80.8797L121.841 91.6379L131.255 86.4275ZM0.125664 25.2666C0.103474 25.7808 0.502298 26.2156 1.01646 26.2378C1.53063 26.26 1.96543 25.8611 1.98762 25.347L0.125664 25.2666ZM2.51365 23.1606C2.69459 22.6788 2.45071 22.1415 1.96892 21.9606C1.48713 21.7796 0.949887 22.0235 0.768947 22.5053L2.51365 23.1606ZM3.17362 17.8042C2.90432 18.2427 3.04152 18.8165 3.48008 19.0858C3.91864 19.3552 4.49248 19.2179 4.76178 18.7794L3.17362 17.8042ZM7.58214 14.6128C7.8861 14.1976 7.79584 13.6145 7.38055 13.3105C6.96526 13.0066 6.38219 13.0968 6.07823 13.5121L7.58214 14.6128ZM9.24817 9.4361C8.92086 9.83326 8.97748 10.4205 9.37463 10.7478C9.77179 11.0752 10.3591 11.0185 10.6864 10.6214L9.24817 9.4361ZM14.4632 7.06901C14.8889 6.77982 14.9995 6.20028 14.7103 5.77457C14.4212 5.34887 13.8416 5.2382 13.4159 5.5274L14.4632 7.06901ZM18.7813 2.71995C18.3018 2.90697 18.0647 3.44725 18.2517 3.92672C18.4388 4.40618 18.979 4.64325 19.4585 4.45624L18.7813 2.71995ZM24.9184 2.93447C25.425 2.84393 25.7623 2.35984 25.6718 1.85323C25.5812 1.34661 25.0971 1.00931 24.5905 1.09986L24.9184 2.93447ZM30.5757 0.556617C30.061 0.560538 29.647 0.980905 29.651 1.49553C29.6549 2.01016 30.0752 2.42417 30.5899 2.42025L30.5757 0.556617ZM36.2862 2.82047C36.7954 2.89552 37.2689 2.54362 37.344 2.03448C37.419 1.52534 37.0671 1.05176 36.558 0.976708L36.2862 2.82047ZM42.4062 2.29586C41.9143 2.14465 41.3929 2.42085 41.2417 2.91277C41.0905 3.4047 41.3667 3.92607 41.8586 4.07728L42.4062 2.29586ZM47.1511 6.18775C47.6111 6.41857 48.1711 6.23279 48.4019 5.77281C48.6327 5.31283 48.4469 4.75283 47.987 4.52202L47.1511 6.18775ZM53.0922 7.75596C52.6902 7.43469 52.1038 7.50018 51.7825 7.90223C51.4613 8.30428 51.5268 8.89064 51.9288 9.21191L53.0922 7.75596ZM56.3481 13.6357C56.6922 14.0184 57.2814 14.0497 57.6641 13.7056C58.0468 13.3615 58.0781 12.7723 57.734 12.3896L56.3481 13.6357ZM62.2805 17.7284C61.9567 17.3283 61.3699 17.2665 60.9699 17.5903C60.5699 17.9141 60.508 18.5008 60.8318 18.9009L62.2805 17.7284ZM65.0795 24.3742C65.3877 24.7863 65.9717 24.8705 66.3838 24.5623C66.7959 24.254 66.8801 23.67 66.5719 23.2579L65.0795 24.3742ZM70.6885 28.894C70.388 28.4762 69.8057 28.381 69.3879 28.6814C68.97 28.9819 68.8749 29.5642 69.1753 29.982L70.6885 28.894ZM73.2622 35.6371C73.5673 36.0515 74.1506 36.1402 74.5651 35.8351C74.9795 35.53 75.0682 34.9467 74.7631 34.5322L73.2622 35.6371ZM78.9985 39.9813C78.6673 39.5874 78.0795 39.5365 77.6856 39.8676C77.2917 40.1988 77.2408 40.7866 77.5719 41.1806L78.9985 39.9813ZM82.5481 46.2754C82.9427 46.6057 83.5304 46.5535 83.8607 46.1589C84.1911 45.7642 84.1389 45.1765 83.7443 44.8462L82.5481 46.2754ZM89.4199 48.1277C88.9294 47.972 88.4055 48.2435 88.2499 48.734C88.0942 49.2246 88.3656 49.7484 88.8562 49.9041L89.4199 48.1277ZM95.7848 50.4899C96.2973 50.4426 96.6744 49.9888 96.6271 49.4764C96.5798 48.9639 96.126 48.5868 95.6135 48.6341L95.7848 50.4899ZM101.459 47.2521C100.98 47.4397 100.744 47.9802 100.931 48.4595C101.119 48.9387 101.659 49.1752 102.139 48.9877L101.459 47.2521ZM107.819 45.7456C108.223 45.4265 108.291 44.8405 107.972 44.4367C107.653 44.0329 107.067 43.9642 106.663 44.2832L107.819 45.7456ZM110.668 39.8856C110.392 40.32 110.52 40.8959 110.955 41.1719C111.389 41.4479 111.965 41.3195 112.241 40.8851L110.668 39.8856ZM114.669 34.7424C114.762 34.2362 114.427 33.7506 113.921 33.6578C113.415 33.565 112.929 33.9002 112.836 34.4064L114.669 34.7424ZM112.758 28.5112C112.86 29.0156 113.352 29.3418 113.856 29.2398C114.36 29.1378 114.687 28.6462 114.585 28.1418L112.758 28.5112ZM112.187 21.9636C111.918 21.5254 111.344 21.3889 110.905 21.6587C110.467 21.9286 110.331 22.5026 110.6 22.9408L112.187 21.9636ZM106.503 18.7114C106.934 18.9915 107.511 18.8684 107.791 18.4367C108.072 18.0049 107.948 17.4278 107.517 17.1478L106.503 18.7114ZM101.26 14.7784C100.752 14.6948 100.273 15.0386 100.189 15.5464C100.105 16.0543 100.449 16.5337 100.957 16.6173L101.26 14.7784ZM94.9234 16.6365C95.4318 16.5569 95.7795 16.0802 95.6999 15.5717C95.6203 15.0633 95.1436 14.7156 94.6351 14.7952L94.9234 16.6365ZM88.3276 16.6712C87.8572 16.8801 87.6453 17.4307 87.8542 17.9011C88.0631 18.3714 88.6137 18.5833 89.0841 18.3744L88.3276 16.6712ZM83.8615 21.532C84.2644 21.2119 84.3315 20.6257 84.0114 20.2228C83.6912 19.8198 83.105 19.7527 82.7021 20.0729L83.8615 21.532ZM78.2478 24.8465C77.9648 25.2763 78.0838 25.8542 78.5136 26.1373C78.9434 26.4203 79.5213 26.3013 79.8043 25.8715L78.2478 24.8465ZM77.1692 31.2175C77.3475 30.7348 77.1006 30.1989 76.6178 30.0206C76.1351 29.8423 75.5992 30.0892 75.4209 30.572L77.1692 31.2175ZM73.7205 36.669C73.62 37.1738 73.9477 37.6644 74.4525 37.7649C74.9572 37.8654 75.4478 37.5377 75.5483 37.033L73.7205 36.669ZM74.7698 43.0386C74.8024 42.5249 74.4124 42.0822 73.8988 42.0496C73.3852 42.017 72.9425 42.407 72.9099 42.9206L74.7698 43.0386ZM72.9142 49.2206C72.9476 49.7342 73.3909 50.1235 73.9045 50.0901C74.418 50.0568 74.8073 49.6134 74.774 49.0999L72.9142 49.2206ZM75.5634 55.1051C75.4621 54.6005 74.971 54.2735 74.4664 54.3748C73.9618 54.476 73.6348 54.9671 73.7361 55.4717L75.5634 55.1051ZM75.4153 61.5587C75.5881 62.0435 76.1212 62.2963 76.606 62.1235C77.0907 61.9506 77.3436 61.4176 77.1707 60.9328L75.4153 61.5587ZM79.6332 66.4383C79.3859 65.9869 78.8196 65.8215 78.3682 66.0687C77.9169 66.3159 77.7514 66.8823 77.9986 67.3336L79.6332 66.4383ZM81.5026 72.6138C81.8231 73.0165 82.4094 73.0831 82.812 72.7626C83.2147 72.4421 83.2813 71.8559 82.9608 71.4532L81.5026 72.6138ZM87.1025 75.8068C86.7163 75.4666 86.1274 75.504 85.7873 75.8902C85.4471 76.2764 85.4844 76.8652 85.8706 77.2053L87.1025 75.8068ZM90.6611 80.8166C91.0907 81.0999 91.6687 80.9813 91.952 80.5517C92.2354 80.1221 92.1168 79.5441 91.6872 79.2608L90.6611 80.8166ZM96.3766 81.9784C95.9164 81.7481 95.3566 81.9345 95.1263 82.3948C94.896 82.855 95.0824 83.4148 95.5427 83.6451L96.3766 81.9784ZM100.758 85.8292C101.246 85.9944 101.775 85.7333 101.94 85.2459C102.105 84.7585 101.844 84.2294 101.357 84.0642L100.758 85.8292ZM106.581 85.4247C106.075 85.3311 105.588 85.6653 105.495 86.1714C105.401 86.6774 105.735 87.1636 106.241 87.2573L106.581 85.4247ZM111.855 87.9114C112.369 87.9387 112.808 87.5443 112.835 87.0304C112.862 86.5164 112.468 86.0777 111.954 86.0503L111.855 87.9114ZM117.4 86.0662C116.885 86.0863 116.485 86.5194 116.505 87.0337C116.525 87.5479 116.958 87.9486 117.472 87.9285L117.4 86.0662ZM123.028 87.5908C123.542 87.5545 123.929 87.109 123.892 86.5956C123.856 86.0823 123.411 85.6955 122.897 85.7317L123.028 87.5908ZM128.476 85.4457C127.962 85.4534 127.551 85.8767 127.559 86.3913C127.566 86.9059 127.99 87.3168 128.504 87.3092L128.476 85.4457ZM1.98762 25.347C2.01278 24.764 2.1875 24.029 2.51365 23.1606L0.768947 22.5053C0.40706 23.4689 0.162616 24.4104 0.125664 25.2666L1.98762 25.347ZM4.76178 18.7794C5.61342 17.3925 6.5877 15.9716 7.58214 14.6128L6.07823 13.5121C5.06235 14.9001 4.05811 16.3638 3.17362 17.8042L4.76178 18.7794ZM10.6864 10.6214C11.2824 9.89818 11.8365 9.24966 12.3191 8.70308L10.9221 7.46951C10.4244 8.03319 9.85654 8.6979 9.24817 9.4361L10.6864 10.6214ZM12.2334 8.78833C12.9462 8.16616 13.6909 7.59365 14.4632 7.06901L13.4159 5.5274C12.5829 6.09331 11.7785 6.71161 11.0079 7.38426L12.2334 8.78833ZM19.4585 4.45624C21.2122 3.77219 23.0443 3.26941 24.9184 2.93447L24.5905 1.09986C22.6059 1.45453 20.6561 1.98867 18.7813 2.71995L19.4585 4.45624ZM30.5899 2.42025C32.4992 2.4057 34.4104 2.54396 36.2862 2.82047L36.558 0.976708C34.5907 0.686717 32.5839 0.541316 30.5757 0.556617L30.5899 2.42025ZM41.8586 4.07728C43.7239 4.65065 45.5026 5.36053 47.1511 6.18775L47.987 4.52202C46.241 3.64591 44.3654 2.89812 42.4062 2.29586L41.8586 4.07728ZM51.9288 9.21191C52.6797 9.81196 53.3717 10.4418 53.9976 11.0976L55.3457 9.81072C54.6579 9.09014 53.9035 8.40426 53.0922 7.75596L51.9288 9.21191ZM53.9976 11.0976C54.8032 11.9415 55.5861 12.7881 56.3481 13.6357L57.734 12.3896C56.9603 11.529 56.1647 10.6687 55.3457 9.81072L53.9976 11.0976ZM60.8318 18.9009C62.3258 20.7467 63.7357 22.5776 65.0795 24.3742L66.5719 23.2579C65.2174 21.4471 63.7927 19.5968 62.2805 17.7284L60.8318 18.9009ZM69.1753 29.982C70.5899 31.9495 71.9458 33.8489 73.2622 35.6371L74.7631 34.5322C73.4549 32.7551 72.1085 30.8691 70.6885 28.894L69.1753 29.982ZM77.5719 41.1806C79.2074 43.126 80.8472 44.8518 82.5481 46.2754L83.7443 44.8462C82.1551 43.5161 80.5927 41.8776 78.9985 39.9813L77.5719 41.1806ZM88.8562 49.9041C90.0269 50.2756 91.2419 50.5001 92.5119 50.5616L92.6019 48.7001C91.4961 48.6466 90.4402 48.4515 89.4199 48.1277L88.8562 49.9041ZM92.5119 50.5616C93.6141 50.6149 94.7079 50.5893 95.7848 50.4899L95.6135 48.6341C94.6224 48.7256 93.616 48.7491 92.6019 48.7001L92.5119 50.5616ZM102.139 48.9877C104.207 48.1783 106.127 47.0819 107.819 45.7456L106.663 44.2832C105.121 45.5022 103.362 46.5078 101.459 47.2521L102.139 48.9877ZM112.241 40.8851C113.422 39.0272 114.263 36.9607 114.669 34.7424L112.836 34.4064C112.475 36.3757 111.727 38.2185 110.668 39.8856L112.241 40.8851ZM114.585 28.1418C114.374 27.0985 114.068 26.0414 113.662 24.9751L111.92 25.6385C112.291 26.6124 112.568 27.5713 112.758 28.5112L114.585 28.1418ZM113.662 24.9751C113.246 23.883 112.751 22.8798 112.187 21.9636L110.6 22.9408C111.101 23.7533 111.544 24.6509 111.92 25.6385L113.662 24.9751ZM107.517 17.1478C105.62 15.9178 103.491 15.1457 101.26 14.7784L100.957 16.6173C102.962 16.9474 104.844 17.6359 106.503 18.7114L107.517 17.1478ZM94.6351 14.7952C92.4965 15.13 90.3631 15.7671 88.3276 16.6712L89.0841 18.3744C90.9765 17.5339 92.9529 16.9449 94.9234 16.6365L94.6351 14.7952ZM82.7021 20.0729C81.8409 20.7572 81.0233 21.4987 80.2605 22.2939L81.6055 23.584C82.3084 22.8512 83.0638 22.1659 83.8615 21.532L82.7021 20.0729ZM80.2605 22.2939C79.5469 23.0379 78.8743 23.8951 78.2478 24.8465L79.8043 25.8715C80.3775 25.001 80.9809 24.2352 81.6055 23.584L80.2605 22.2939ZM75.4209 30.572C74.7263 32.453 74.1519 34.5025 73.7205 36.669L75.5483 37.033C75.962 34.9552 76.5108 33.0004 77.1692 31.2175L75.4209 30.572ZM72.9099 42.9206C72.7797 44.9742 72.7756 47.0856 72.9142 49.2206L74.774 49.0999C74.6406 47.0461 74.6445 45.0145 74.7698 43.0386L72.9099 42.9206ZM73.7361 55.4717C74.1466 57.5175 74.7014 59.5564 75.4153 61.5587L77.1707 60.9328C76.4886 59.0197 75.9572 57.0677 75.5634 55.1051L73.7361 55.4717ZM77.9986 67.3336C79.0013 69.1641 80.1649 70.9332 81.5026 72.6138L82.9608 71.4532C81.6921 69.8593 80.5869 68.1795 79.6332 66.4383L77.9986 67.3336ZM85.8706 77.2053C86.6549 77.8961 87.4792 78.5617 88.3448 79.1995L89.4503 77.6991C88.6284 77.0935 87.8462 76.4619 87.1025 75.8068L85.8706 77.2053ZM88.3448 79.1995C89.1237 79.7735 89.8958 80.3118 90.6611 80.8166L91.6872 79.2608C90.9494 78.7742 90.2038 78.2544 89.4503 77.6991L88.3448 79.1995ZM95.5427 83.6451C97.3201 84.5344 99.058 85.2526 100.758 85.8292L101.357 84.0642C99.7371 83.515 98.0778 82.8296 96.3766 81.9784L95.5427 83.6451ZM106.241 87.2573C108.168 87.614 110.039 87.8147 111.855 87.9114L111.954 86.0503C110.207 85.9574 108.418 85.7648 106.581 85.4247L106.241 87.2573ZM117.472 87.9285C119.388 87.8539 121.245 87.7167 123.028 87.5908L122.897 85.7317C121.104 85.8583 119.279 85.993 117.4 86.0662L117.472 87.9285Z" fill="white"/>
</svg>
