<svg width="18" height="15" viewBox="0 0 18 15" fill="none" xmlns="http://www.w3.org/2000/svg">
<path d="M17.1019 1.96954C16.4738 2.25567 15.8045 2.44532 15.1066 2.53741C15.8245 2.09232 16.3724 1.39289 16.63 0.549843C15.9607 0.96424 15.2217 1.25695 14.4342 1.4203C13.7987 0.717575 12.8929 0.282349 11.9048 0.282349C9.98763 0.282349 8.44422 1.89828 8.44422 3.87927C8.44422 4.1643 8.46745 4.43838 8.52445 4.69929C5.6456 4.55349 3.09823 3.12064 1.38697 0.937929C1.08821 1.47621 0.912968 2.09232 0.912968 2.75557C0.912968 4.00096 1.53054 5.10492 2.4511 5.74405C1.89475 5.73309 1.34897 5.56536 0.886576 5.30115C0.886576 5.31212 0.886576 5.32637 0.886576 5.34062C0.886576 7.0881 2.08689 8.53959 3.66091 8.87396C3.37905 8.95398 3.07184 8.99235 2.75303 8.99235C2.53133 8.99235 2.30753 8.9792 2.09745 8.93096C2.54611 10.355 3.81927 11.402 5.33312 11.436C4.15497 12.393 2.65907 12.9697 1.03965 12.9697C0.755671 12.9697 0.483304 12.9565 0.210938 12.9204C1.74485 13.9476 3.56274 14.5341 5.52314 14.5341C11.8953 14.5341 15.379 9.05265 15.379 4.30134C15.379 4.14238 15.3737 3.9889 15.3663 3.83651C16.0536 3.33003 16.6311 2.69747 17.1019 1.96954Z" fill="#03A9F4"/>
</svg>
