<svg width="30" height="25" viewBox="0 0 30 25" fill="none" xmlns="http://www.w3.org/2000/svg">
<path d="M29.7653 2.93894C28.69 3.42878 27.5441 3.75347 26.3495 3.91112C27.5785 3.14914 28.5165 1.95174 28.9575 0.508477C27.8116 1.21791 26.5465 1.71902 25.1983 1.99866C24.1103 0.795628 22.5596 0.0505371 20.868 0.0505371C17.586 0.0505371 14.9437 2.81695 14.9437 6.20833C14.9437 6.6963 14.9835 7.1655 15.0811 7.61218C10.1526 7.36256 5.79158 4.90958 2.86196 1.17287C2.35049 2.09438 2.05048 3.14914 2.05048 4.28461C2.05048 6.41666 3.10775 8.3066 4.68371 9.40077C3.73126 9.38201 2.79689 9.09485 2.0053 8.64254C2.0053 8.66131 2.0053 8.68571 2.0053 8.71011C2.0053 11.7017 4.06019 14.1866 6.75486 14.759C6.27232 14.8961 5.7464 14.9617 5.20059 14.9617C4.82106 14.9617 4.43792 14.9392 4.07826 14.8566C4.84636 17.2946 7.02596 19.087 9.61762 19.1451C7.60068 20.7836 5.03974 21.7708 2.26736 21.7708C1.7812 21.7708 1.31491 21.7483 0.848633 21.6863C3.47463 23.4449 6.58679 24.449 9.94293 24.449C20.8517 24.449 26.8158 15.065 26.8158 6.9309C26.8158 6.65876 26.8068 6.39601 26.7941 6.13514C27.9707 5.26805 28.9593 4.18514 29.7653 2.93894Z" fill="white"/>
</svg>
